<svg width="66" height="66" viewBox="0 0 66 66" fill="none" xmlns="http://www.w3.org/2000/svg">
<path d="M18.7347 36.5966C18.6743 36.6032 18.6392 36.5964 18.6225 36.5917C18.6055 36.5868 18.5932 36.58 18.5821 36.5712C18.5571 36.5513 18.5215 36.5053 18.5055 36.4317C18.4896 36.358 18.503 36.3018 18.5176 36.2737C18.524 36.2612 18.5324 36.2501 18.5459 36.2389C18.5592 36.2279 18.5885 36.2077 18.6464 36.1897C20.8373 35.5071 20.6164 32.3908 18.4042 31.925C18.3451 31.9125 18.3132 31.8951 18.2977 31.8847C18.2819 31.8742 18.2711 31.8628 18.2622 31.8495C18.2424 31.8197 18.2226 31.7627 18.2296 31.6881C18.2367 31.6133 18.2662 31.5668 18.2855 31.5478C18.2938 31.5396 18.3033 31.533 18.3176 31.5273C18.3317 31.5218 18.3644 31.5119 18.4246 31.5128C20.7383 31.5484 21.4716 28.5159 19.5209 27.3968C19.4689 27.367 19.4439 27.3408 19.4321 27.3257C19.42 27.3105 19.4129 27.2957 19.4083 27.2795C19.398 27.2435 19.3971 27.1825 19.4265 27.1142C19.4559 27.0458 19.4971 27.0128 19.5181 27.0023C19.527 26.9979 19.5363 26.995 19.5499 26.9942C19.5634 26.9934 19.5964 26.9938 19.6527 27.0131C21.8456 27.7651 23.4874 25.1143 21.9741 23.4539C21.9341 23.4101 21.9187 23.3779 21.9122 23.3605C21.9057 23.3428 21.9035 23.3271 21.9041 23.3109C21.9054 23.2745 21.9231 23.2172 21.9716 23.1622C22.0203 23.107 22.0689 23.089 22.0911 23.0857C22.1004 23.0843 22.1096 23.0844 22.1223 23.0877C22.1349 23.0909 22.1657 23.1012 22.2129 23.1366C24.0585 24.5183 26.463 22.531 25.5244 20.4806C25.4999 20.4271 25.4954 20.3926 25.4946 20.3755C25.4939 20.358 25.4964 20.344 25.5015 20.3304C25.5129 20.2995 25.5457 20.2522 25.6084 20.2157C25.6713 20.1791 25.7238 20.1765 25.7479 20.1806C25.7581 20.1823 25.7677 20.1855 25.7795 20.193C25.7911 20.2004 25.8175 20.2199 25.8515 20.2678C27.1727 22.1267 30.0957 21.0226 29.826 18.7677C29.819 18.7093 29.8254 18.6761 29.8296 18.6612C29.8338 18.6461 29.8396 18.6354 29.8473 18.6258C29.865 18.6036 29.908 18.57 29.9789 18.5553C30.0497 18.5405 30.103 18.5541 30.1283 18.5673C30.1394 18.5731 30.1492 18.5804 30.1593 18.5926C30.1693 18.6046 30.1889 18.6323 30.2067 18.6885C30.8966 20.856 34.0254 20.7007 34.4607 18.4763C34.4719 18.419 34.4879 18.3906 34.4954 18.3792C34.5031 18.3677 34.5105 18.3609 34.5191 18.3553C34.5394 18.342 34.5885 18.3234 34.6611 18.3318C34.7336 18.3402 34.7832 18.3703 34.8064 18.394C34.8167 18.4045 34.8249 18.4163 34.8314 18.4325C34.8379 18.4485 34.848 18.4817 34.8479 18.5404C34.8417 20.7874 37.8635 21.6455 38.976 19.6482C39.0045 19.5971 39.0283 19.5755 39.0385 19.5675C39.0487 19.5594 39.0571 19.5557 39.0661 19.5533C39.0878 19.5475 39.1397 19.5445 39.2071 19.5756C39.2743 19.6065 39.3142 19.6518 39.3305 19.6845C39.3378 19.6991 39.3424 19.7143 39.3437 19.7331C39.345 19.7515 39.3443 19.7871 39.326 19.843C38.6328 21.9626 41.2334 23.7306 42.9246 22.1703C42.968 22.1302 42.9979 22.1167 43.0106 22.1121C43.0234 22.1074 43.0331 22.1063 43.043 22.1069C43.0666 22.1081 43.1179 22.1218 43.1732 22.1726C43.2284 22.2232 43.2529 22.2794 43.2585 22.3164C43.261 22.333 43.2606 22.3493 43.2559 22.3681C43.2513 22.3865 43.2394 22.4205 43.2043 22.4684C41.8868 24.2675 43.8158 26.7461 45.9148 25.7921C45.9694 25.7673 46.0034 25.7634 46.0186 25.7628C46.034 25.7623 46.0454 25.7646 46.0564 25.7688C46.0819 25.7785 46.1281 25.8091 46.1657 25.8747C46.2032 25.9401 46.2087 26 46.2029 26.0351C46.2003 26.0508 46.1952 26.0655 46.1852 26.0814C46.1753 26.0971 46.1534 26.1257 46.1045 26.1606C44.2769 27.4672 45.369 30.4021 47.654 30.1533C47.7144 30.1467 47.7495 30.1535 47.7662 30.1583C47.7832 30.1631 47.7955 30.1699 47.8066 30.1787C47.8316 30.1986 47.8672 30.2446 47.8831 30.3183C47.8991 30.3919 47.8857 30.4481 47.8711 30.4763C47.8647 30.4887 47.8562 30.4998 47.8428 30.511C47.8294 30.522 47.8002 30.5422 47.7423 30.5602C45.5514 31.2428 45.7723 34.3591 47.9845 34.8249C48.0436 34.8374 48.0755 34.8548 48.091 34.8652C48.1067 34.8758 48.1176 34.8871 48.1265 34.9004C48.1463 34.9302 48.1661 34.9872 48.159 35.0619C48.152 35.1367 48.1224 35.1831 48.1032 35.2021C48.0949 35.2103 48.0854 35.217 48.0711 35.2226C48.057 35.2281 48.0243 35.2381 47.9641 35.2372C45.6504 35.2015 44.9171 38.2341 46.8678 39.3531C46.9198 39.3829 46.9448 39.4092 46.9566 39.4242C46.9687 39.4395 46.9758 39.4542 46.9804 39.4704C46.9907 39.5064 46.9916 39.5675 46.9622 39.6357C46.9328 39.7042 46.8916 39.7371 46.8706 39.7476C46.8617 39.752 46.8524 39.755 46.8388 39.7558C46.8253 39.7566 46.7923 39.7562 46.736 39.7369C44.5431 38.9848 42.9013 41.6356 44.4146 43.296C44.4546 43.3399 44.47 43.372 44.4765 43.3894C44.483 43.4071 44.4852 43.4228 44.4846 43.439C44.4833 43.4754 44.4656 43.5327 44.4171 43.5877C44.3684 43.6429 44.3198 43.6609 44.2976 43.6642C44.2883 43.6656 44.2791 43.6656 44.2664 43.6623C44.2538 43.659 44.223 43.6487 44.1758 43.6133C42.3301 42.2316 39.9257 44.2189 40.8643 46.2693C40.8888 46.3229 40.8933 46.3573 40.8941 46.3744C40.8948 46.3919 40.8923 46.4059 40.8872 46.4196C40.8758 46.4505 40.843 46.4977 40.7803 46.5342C40.7174 46.5708 40.6648 46.5734 40.6408 46.5694C40.6306 46.5677 40.621 46.5644 40.6092 46.5569C40.5976 46.5496 40.5712 46.53 40.5371 46.4821C39.2159 44.6232 36.293 45.7273 36.5627 47.9823C36.5696 48.0407 36.5633 48.0738 36.5591 48.0887C36.5549 48.1039 36.5491 48.1145 36.5414 48.1242C36.5237 48.1464 36.4806 48.1799 36.4098 48.1947C36.339 48.2094 36.2857 48.1959 36.2603 48.1826C36.2493 48.1769 36.2395 48.1695 36.2294 48.1573C36.2194 48.1454 36.1998 48.1176 36.182 48.0615C35.4921 45.894 32.3633 46.0492 31.928 48.2737C31.9168 48.331 31.9008 48.3593 31.8933 48.3707C31.8856 48.3822 31.8782 48.389 31.8696 48.3946C31.8493 48.4079 31.8002 48.4265 31.7275 48.4181C31.655 48.4097 31.6055 48.3796 31.5822 48.3559C31.572 48.3454 31.5638 48.3336 31.5572 48.3174C31.5508 48.3014 31.5406 48.2682 31.5408 48.2095C31.547 45.9625 28.5251 45.1044 27.4126 47.1017C27.3842 47.1528 27.3604 47.1745 27.3502 47.1825C27.34 47.1905 27.3316 47.1943 27.3225 47.1967C27.3009 47.2025 27.249 47.2054 27.1816 47.1744C27.1144 47.1434 27.0745 47.0981 27.0582 47.0654C27.0509 47.0508 27.0463 47.0356 27.045 47.0168C27.0437 46.9984 27.0444 46.9629 27.0627 46.9069C27.7558 44.7873 25.1553 43.0193 23.4641 44.5797C23.4207 44.6197 23.3908 44.6332 23.3781 44.6379C23.3653 44.6426 23.3556 44.6436 23.3457 44.6431C23.3221 44.6418 23.2708 44.6282 23.2155 44.5773C23.1603 44.5267 23.1358 44.4706 23.1302 44.4336C23.1277 44.417 23.1281 44.4006 23.1328 44.3819C23.1374 44.3634 23.1493 44.3295 23.1844 44.2815C24.5019 42.4824 22.5729 40.0039 20.4739 40.9578C20.4193 40.9826 20.3853 40.9865 20.3701 40.9871C20.3547 40.9876 20.3433 40.9853 20.3323 40.9811C20.3068 40.9715 20.2606 40.9408 20.223 40.8753C20.1855 40.8099 20.1799 40.7499 20.1857 40.7148C20.1883 40.6991 20.1935 40.6844 20.2035 40.6685C20.2134 40.6528 20.2353 40.6242 20.2841 40.5893C22.1118 39.2828 21.0197 36.3478 18.7347 36.5966Z" stroke="#D6D6D6" stroke-width="2"/>
<path fill-rule="evenodd" clip-rule="evenodd" d="M31.6969 35.5244C31.368 35.1937 31.1261 34.7675 31.0198 34.2778C30.9725 34.0599 30.955 33.8428 30.9645 33.6307L19.7484 40.1617L20.7691 41.8875L31.6969 35.5244ZM31.3118 32.4732C31.6494 31.9081 32.2107 31.4823 32.9046 31.3379C32.9209 31.3345 32.9373 31.3313 32.9536 31.3282L26.3798 20.0336L24.6487 21.0253L31.3118 32.4732ZM34.5259 31.557C35.135 31.8675 35.6154 32.4256 35.8113 33.1287L46.9559 26.6394L45.9352 24.9136L34.5259 31.557ZM35.3244 35.4014C34.9858 35.8031 34.5163 36.0978 33.9623 36.2131C33.8137 36.2441 33.6652 36.2608 33.5183 36.2642L39.8082 47.0709L41.5393 46.0792L35.3244 35.4014Z" fill="#D6D6D6"/>
<path d="M32.8159 31.9378C33.8803 31.7163 34.8583 32.3705 35.0615 33.3069C35.2647 34.2432 34.6428 35.2304 33.5784 35.4519C32.514 35.6734 31.5359 35.0192 31.3328 34.0828C31.1296 33.1465 31.7515 32.1593 32.8159 31.9378Z" stroke="#D6D6D6" stroke-width="2"/>
</svg>
