<svg width="48" height="35" viewBox="0 0 48 35" fill="none" xmlns="http://www.w3.org/2000/svg">
<path d="M21.7775 17.1385H12.5294C12.0995 17.1385 11.6866 17.306 11.3782 17.6054L10.2026 18.747C8.92512 19.9874 6.94672 18.3335 7.94099 16.8564C8.1056 16.6119 8.19353 16.3238 8.19353 16.029V10.4584V7.82172C8.19353 4.60647 10.8 2 14.0153 2H20.1604H23.8791C28.613 2 32.4507 5.83766 32.4507 10.5716C32.4507 14.1984 29.5106 17.1385 25.8839 17.1385H21.7775Z" stroke="#29B18D" stroke-width="3"/>
<path d="M16.2254 13.8072V13.8072C16.2254 10.7912 18.6703 8.34619 21.6863 8.34619H28.8716M35.1442 8.34619V8.34619C37.8134 8.34619 39.9772 10.51 39.9772 13.1792V16.8046V22.3873C39.9772 22.6744 40.0614 22.9552 40.2194 23.1949V23.1949C41.1901 24.6678 39.2134 26.2865 37.9608 25.0444L36.8639 23.9566C36.5591 23.6543 36.1471 23.4847 35.7177 23.4847H26.6761H19.5077C17.6949 23.4847 16.2254 22.0151 16.2254 20.2023V20.2023" stroke="#29B18D" stroke-width="3"/>
</svg>
