<svg width="47" height="50" viewBox="0 0 47 50" fill="none" xmlns="http://www.w3.org/2000/svg">
<path d="M39.6 36V45.6C39.6 46.7046 38.7046 47.6 37.6 47.6H8C6.89543 47.6 6 46.7046 6 45.6V4C6 2.89543 6.89543 2 8 2H37.6C38.7046 2 39.6 2.89543 39.6 4V15M20.88 25.52H39.6H43.44M39.6 19.28L44.1078 24.1634C44.815 24.9296 44.815 26.1104 44.1078 26.8766L39.6 31.76" stroke="#9FFFF5" stroke-width="4"/>
<path d="M35.6 36V45.6C35.6 46.7046 34.7046 47.6 33.6 47.6H4C2.89543 47.6 2 46.7046 2 45.6V4C2 2.89543 2.89543 2 4 2H33.6C34.7046 2 35.6 2.89543 35.6 4V15M16.88 25.52H35.6H39.44M35.6 19.28L40.1078 24.1634C40.815 24.9296 40.815 26.1104 40.1078 26.8766L35.6 31.76" stroke="#F67CBB" stroke-width="4"/>
<path d="M37.6 36V45.6C37.6 46.7046 36.7046 47.6 35.6 47.6H6C4.89543 47.6 4 46.7046 4 45.6V4C4 2.89543 4.89543 2 6 2H35.6C36.7046 2 37.6 2.89543 37.6 4V15M18.88 25.52H37.6H41.44M37.6 19.28L42.1078 24.1634C42.815 24.9296 42.815 26.1104 42.1078 26.8766L37.6 31.76" stroke="white" stroke-width="4"/>
</svg>
